<svg width="67" height="35" viewBox="0 0 67 35" fill="none" xmlns="http://www.w3.org/2000/svg">
<path d="M0.49996 13.8753C0.49996 9.92545 1.83742 6.62554 4.51235 3.97561C7.18728 1.32568 10.5372 0.000718532 14.5621 0.000718532C18.587 0.000718532 21.9369 1.32568 24.6118 3.97561C27.2867 6.62554 28.6242 9.92545 28.6242 13.8753C28.6242 17.4253 27.5242 20.4877 25.3243 23.0626C23.1244 25.6125 20.2869 27.1125 16.812 27.5625V34.4998H12.4996V27.5625C8.97473 27.1125 6.08731 25.6125 3.83737 23.0626C1.61243 20.4877 0.49996 17.4253 0.49996 13.8753ZM7.66227 6.82554C5.88732 8.62549 4.99984 10.9754 4.99984 13.8753C4.99984 16.7753 5.88732 19.1252 7.66227 20.9252C9.43722 22.7251 11.7372 23.6251 14.5621 23.6251C17.362 23.6251 19.6495 22.7251 21.4244 20.9252C23.2244 19.1252 24.1243 16.7753 24.1243 13.8753C24.1243 10.9754 23.2244 8.62549 21.4244 6.82554C19.6495 5.02558 17.362 4.12561 14.5621 4.12561C11.7372 4.12561 9.43722 5.02558 7.66227 6.82554ZM31.6271 27V0.750698H35.5645V23.4376H39.8768V27H31.6271ZM42.0532 4.3881C41.6033 3.93811 41.3783 3.38813 41.3783 2.73815C41.3783 2.08816 41.6033 1.53818 42.0532 1.08819C42.5032 0.613202 43.0532 0.375708 43.7032 0.375708C44.3532 0.375708 44.9032 0.613202 45.3532 1.08819C45.8281 1.53818 46.0656 2.08816 46.0656 2.73815C46.0656 3.38813 45.8281 3.93811 45.3532 4.3881C44.9032 4.83809 44.3532 5.06308 43.7032 5.06308C43.0532 5.06308 42.5032 4.83809 42.0532 4.3881ZM41.7533 27V7.87551H45.6907V27H41.7533ZM47.3635 27L53.1758 17.4378L47.551 7.87551H52.0508L56.3632 15.5628H57.3007L61.6131 7.87551H66.113L60.4881 17.4378L66.3005 27H61.8006L57.3007 19.1252H56.3632L51.8633 27H47.3635Z" fill="url(#paint0_linear_34_186)"/>
<defs>
<linearGradient id="paint0_linear_34_186" x1="-33.2105" y1="-2.5" x2="42.4752" y2="40.9982" gradientUnits="userSpaceOnUse">
<stop/>
<stop offset="1" stop-color="#511E7B"/>
</linearGradient>
</defs>
</svg>
